<?xml version="1.0" encoding="utf-8"?>
<svg xmlns="http://www.w3.org/2000/svg" viewBox="-65.7782 193.9027 1104.4638 499.4537" width="552.23px" height="249.727px">
  <path d="M 352.658 193.956 C 363.019 193.594 372.515 195.105 382.553 197.614 C 384.497 198.095 386.452 198.529 388.408 198.956 C 402.725 202.428 415.754 210.473 426.728 220.152 C 427.396 220.666 428.063 221.18 428.751 221.71 C 439.273 230.049 450.075 245.698 452.412 259.062 C 452.516 260.082 452.62 261.101 452.728 262.152 C 452.003 262.141 451.278 262.131 450.532 262.12 C 447.18 262.078 443.829 262.052 440.478 262.027 C 438.769 262.002 438.769 262.002 437.025 261.976 C 419.086 261.874 400.976 266.06 386.841 277.706 C 385.025 280.064 385.485 282.292 385.728 285.152 C 386.058 285.812 386.388 286.472 386.728 287.152 C 393.149 287.578 396.72 286.574 402.228 283.402 C 419.666 274.158 439.425 272.288 458.595 277.183 C 468.593 280.275 476.619 284.502 484.728 291.152 C 485.352 291.661 485.976 292.17 486.619 292.695 C 495.515 300.781 502.666 312.598 505.728 324.152 C 505.95 324.957 506.171 325.763 506.4 326.593 C 509.348 339.005 508.502 350.945 502.033 362.066 C 493.857 374.081 482.276 381.295 468.728 386.152 C 467.738 386.152 466.748 386.152 465.728 386.152 C 464.361 384.203 464.361 384.203 462.853 381.464 C 451.275 362.644 432.657 352.087 411.79 346.343 C 388.201 341.485 363.784 346.027 343.708 359.07 C 334.296 365.632 334.296 365.632 326.728 374.152 C 326.27 378.578 326.236 380.414 328.728 384.152 C 332.819 384.778 332.819 384.778 336.728 384.152 C 338.111 382.526 339.437 380.852 340.728 379.152 C 349.202 371.546 358.173 366.291 368.728 362.152 C 369.643 361.791 370.558 361.43 371.501 361.058 C 388.2 355.769 407.013 358.139 422.728 365.152 C 423.761 365.596 424.793 366.041 425.857 366.499 C 440.928 373.853 452.392 387.883 458.728 403.152 C 459.598 406.08 460.353 408.985 460.99 411.972 C 461.602 414.508 461.602 414.508 464.728 416.152 C 467.459 416.493 469.037 416.601 471.372 415.081 C 473.454 412.118 473.013 409.525 472.915 405.964 C 472.888 404.692 472.861 403.42 472.833 402.109 C 472.799 401.133 472.764 400.157 472.728 399.152 C 473.619 398.823 473.619 398.823 474.529 398.488 C 484.959 394.497 494.239 389.444 502.728 382.152 C 503.333 381.643 503.937 381.133 504.56 380.609 C 510.254 375.403 513.901 368.763 517.728 362.152 C 531.44 368.444 540.593 386.659 545.728 400.152 C 546.143 401.213 546.143 401.213 546.566 402.296 C 549.204 409.871 549.282 417.387 549.228 425.339 C 549.226 426.028 549.224 426.717 549.223 427.427 C 549.163 437.812 548.539 446.751 543.728 456.152 C 542.984 457.699 542.984 457.699 542.224 459.277 C 532.375 477.884 515.123 490.97 495.29 497.402 C 493.11 498.011 490.922 498.594 488.728 499.152 C 487.04 499.6 487.04 499.6 485.318 500.058 C 462.274 505.474 431.825 502.938 410.525 492.023 C 407.224 490.423 404.35 490.864 400.728 491.152 C 398.515 492.03 398.515 492.03 397.728 494.152 C 397.65 497.692 397.65 497.692 398.728 501.152 C 403.103 505.192 408.86 506.392 414.415 508.152 C 415.447 508.495 416.479 508.838 417.542 509.191 C 431.863 513.775 445.885 515.681 460.885 515.598 C 463.228 515.589 465.569 515.618 467.912 515.65 C 488.151 515.742 510.883 510.261 526.982 497.343 C 527.558 496.95 528.134 496.557 528.728 496.152 C 531.728 497.152 531.728 497.152 532.607 498.831 C 539.582 521.231 537.613 542.415 526.728 563.152 C 524.591 566.351 522.251 569.254 519.728 572.152 C 519.112 572.966 518.496 573.781 517.861 574.62 C 511.119 582.622 501.252 588.153 491.728 592.152 C 490.583 592.639 489.439 593.126 488.259 593.628 C 474.537 598.923 457.799 599.421 443.728 595.152 C 441.228 594.027 441.228 594.027 439.728 593.152 C 441.496 587.713 441.496 587.713 442.529 585.218 C 444.374 580.732 445.321 577.091 444.728 572.152 C 441.258 569.838 439.803 569.812 435.728 570.152 C 432.091 572.576 432.052 573.676 430.915 577.777 C 429.07 583.591 426.873 587.699 422.728 592.152 C 422.103 592.83 421.478 593.508 420.833 594.206 C 411.73 603.158 401.629 606.715 389.103 606.839 C 375.974 606.615 366.147 602.424 356.728 593.152 C 349.518 585.07 344.818 574.283 345.326 563.288 C 346.082 559.274 347.837 555.744 349.728 552.152 C 351.122 549.363 350.985 547.231 350.728 544.152 C 346.93 541.62 345.219 541.377 340.728 542.152 C 334.956 547.969 333.506 556.496 333.399 564.392 C 333.404 565.096 333.41 565.801 333.415 566.527 C 333.42 567.271 333.425 568.014 333.43 568.781 C 333.624 577.919 336.391 584.998 340.642 593.023 C 341.728 595.152 341.728 595.152 342.728 598.152 C 341.057 598.863 341.057 598.863 339.353 599.589 C 329.505 604.557 321.635 613.338 316.728 623.152 C 316.262 629.033 316.262 629.033 318.728 634.152 C 321.552 634.208 323.162 634.201 325.728 633.152 C 327.506 631.106 328.812 628.95 330.208 626.628 C 335.289 618.348 342.131 612.473 351.091 608.757 C 355.67 607.995 357.778 609.345 361.415 611.839 C 373.541 619.366 386.822 620.919 400.837 618.648 C 403.547 617.963 406.109 617.127 408.728 616.152 C 410.223 615.624 410.223 615.624 411.747 615.085 C 417.978 612.711 422.72 609.979 427.595 605.41 C 429.728 604.152 429.728 604.152 432.615 604.335 C 435.684 605.14 438.663 606.065 441.665 607.089 C 448.963 609.407 456.135 610.354 463.728 611.152 C 463.971 625.61 455.701 638.485 446.728 649.152 C 446.052 650.001 445.377 650.851 444.681 651.726 C 435.549 662.66 423.151 670.431 410.728 677.152 C 409.724 677.714 409.724 677.714 408.701 678.288 C 399.199 683.371 388.747 686.278 378.353 688.902 C 377.105 689.218 377.105 689.218 375.832 689.54 C 352.548 695.226 320.751 695.62 299.587 683.328 C 293.876 679.441 289.261 675.711 286.728 669.152 C 285.976 663.3 286.052 657.482 286.093 651.591 C 286.087 649.78 286.079 647.97 286.069 646.159 C 286.049 641.191 286.059 636.224 286.074 631.255 C 286.086 625.895 286.068 620.534 286.054 615.173 C 286.032 604.674 286.037 594.175 286.052 583.676 C 286.063 575.142 286.064 566.608 286.059 558.074 C 286.058 556.253 286.058 556.253 286.057 554.394 C 286.055 551.927 286.053 549.46 286.052 546.993 C 286.037 523.855 286.054 500.718 286.081 477.58 C 286.103 457.729 286.099 437.878 286.076 418.028 C 286.049 394.976 286.039 371.924 286.054 348.873 C 286.056 346.414 286.057 343.956 286.059 341.497 C 286.06 340.287 286.06 339.078 286.061 337.831 C 286.066 329.309 286.058 320.787 286.046 312.266 C 286.032 301.878 286.036 291.49 286.063 281.102 C 286.076 275.803 286.081 270.503 286.065 265.204 C 286.05 260.35 286.058 255.498 286.085 250.644 C 286.09 248.891 286.087 247.137 286.075 245.383 C 285.987 231.538 288.559 222.709 298.283 212.472 C 313.454 198.076 332.531 194.957 352.658 193.956 Z" fill="#426BD1" style="stroke-width: 1;" transform="matrix(1, 0, 0, 1, 5.684341886080802e-14, 0)"/>
  <path d="M 130.165 194.589 C 130.928 194.594 131.69 194.598 132.475 194.603 C 144.115 194.699 154.964 195.397 165.728 200.152 C 166.391 200.436 167.054 200.72 167.738 201.013 C 179.794 206.344 190.771 214.47 195.728 227.152 C 197.63 233.516 198.029 239.289 198.036 245.91 C 198.049 247.502 198.049 247.502 198.062 249.125 C 198.089 252.667 198.101 256.21 198.114 259.753 C 198.13 262.297 198.146 264.842 198.163 267.387 C 198.211 275.012 198.242 282.636 198.267 290.261 C 198.275 292.416 198.283 294.572 198.291 296.727 C 198.341 310.131 198.385 323.534 198.41 336.938 C 198.416 340.037 198.422 343.136 198.428 346.235 C 198.43 347.005 198.431 347.775 198.433 348.569 C 198.458 361.048 198.524 373.527 198.608 386.006 C 198.693 398.835 198.74 411.664 198.75 424.494 C 198.757 431.69 198.78 438.886 198.846 446.082 C 198.908 452.852 198.919 459.62 198.896 466.39 C 198.895 468.87 198.912 471.35 198.947 473.831 C 199.229 494.892 199.229 494.892 192.999 501.967 C 190.412 504.239 190.412 504.239 187.728 506.152 C 186.763 506.856 185.797 507.561 184.803 508.287 C 175.234 514.986 166.336 517.717 154.728 517.777 C 152.686 517.802 150.644 517.836 148.603 517.878 C 147.714 517.884 146.824 517.89 145.908 517.896 C 143.518 517.948 143.518 517.948 141.728 520.152 C 141.967 525.187 141.967 525.187 144.728 529.152 C 146.657 529.611 146.657 529.611 148.861 529.785 C 149.666 529.868 150.472 529.952 151.302 530.038 C 152.144 530.117 152.986 530.196 153.853 530.277 C 155.127 530.406 155.127 530.406 156.427 530.538 C 158.527 530.751 160.627 530.952 162.728 531.152 C 166.862 545.837 166.188 562.895 158.927 576.535 C 156.99 579.536 154.936 582.346 152.728 585.152 C 152.206 585.877 151.684 586.603 151.146 587.351 C 142.995 597.854 128.26 605.79 115.212 607.835 C 103.488 608.9 90.801 609.699 79.728 605.152 C 79.031 604.873 78.333 604.595 77.615 604.308 C 66.475 599.29 57.287 590.517 52.728 579.152 C 52.353 577.845 51.997 576.533 51.665 575.214 C 51.356 574.204 51.047 573.193 50.728 572.152 C 47.207 570.978 44.421 570.95 40.728 571.152 C 38.43 573.04 38.43 573.04 38.353 576.152 C 38.47 581.214 40.74 585.584 42.728 590.152 C 43.223 591.637 43.223 591.637 43.728 593.152 C 28.864 599.855 9.81 599.289 -5.44 593.761 C -21.991 587.082 -37.338 575.129 -45.085 558.714 C -53.348 538.727 -55.481 517.812 -48.272 497.152 C -43.582 497.152 -41.455 498.742 -37.71 501.214 C -11.613 517.553 20.614 520.155 50.228 513.402 C 68.62 509.81 68.62 509.81 84.728 501.152 C 85.946 497.487 85.946 497.487 85.728 494.152 C 83.422 492.023 82.143 491.187 78.974 490.917 C 75.379 491.177 72.76 492.072 69.415 493.402 C 64.006 495.42 58.665 497.038 53.04 498.339 C 52.045 498.571 52.045 498.571 51.029 498.807 C 48.933 499.279 46.833 499.719 44.728 500.152 C 43.469 500.422 43.469 500.422 42.185 500.698 C 16.742 505.816 -10.893 502.33 -32.835 488.152 C -34.664 486.842 -36.479 485.511 -38.272 484.152 C -39.324 483.392 -39.324 483.392 -40.397 482.617 C -50.645 474.538 -58.166 462.373 -62.272 450.152 C -62.527 449.539 -62.781 448.925 -63.044 448.294 C -65.76 441.309 -65.81 434.517 -65.772 427.089 C -65.767 425.8 -65.762 424.511 -65.757 423.183 C -65.575 413.251 -64.336 405.229 -60.272 396.152 C -59.838 395.108 -59.403 394.063 -58.956 392.988 C -53.718 381.437 -45.011 370.274 -35.272 362.152 C -34.612 362.152 -33.952 362.152 -33.272 362.152 C -32.233 363.888 -31.268 365.669 -30.335 367.464 C -21.226 383.457 -5.476 393.417 11.728 399.152 C 11.563 399.812 11.398 400.472 11.228 401.152 C 10.015 408.184 10.015 408.184 12.353 414.714 C 14.712 416.44 14.712 416.44 17.853 416.027 C 20.825 415.369 20.825 415.369 22.728 413.152 C 23.201 411.542 23.608 409.913 23.978 408.277 C 28.315 391.831 38.973 377.803 53.586 369.037 C 70.768 359.343 89.89 355.825 109.415 360.339 C 111.202 360.896 112.974 361.5 114.728 362.152 C 115.715 362.504 116.703 362.856 117.72 363.218 C 128.839 367.504 137.438 373.18 145.244 382.21 C 148.551 384.795 150.633 384.623 154.728 384.152 C 156.913 382.71 156.913 382.71 157.728 380.152 C 157.415 372.788 154.106 369.635 148.958 364.867 C 140.627 357.641 130.961 353.034 120.728 349.152 C 119.897 348.801 119.065 348.45 118.208 348.089 C 100.732 341.484 76.738 342.993 59.728 350.152 C 59.11 350.409 58.493 350.666 57.856 350.931 C 41.961 357.761 29.461 367.88 20.818 382.773 C 18.728 385.152 18.728 385.152 15.904 385.687 C 3.481 383.594 -8.374 374.352 -15.71 364.527 C -21.834 355.806 -23.451 348.653 -23.46 338.214 C -23.472 337.441 -23.484 336.669 -23.497 335.872 C -23.509 330.948 -22.839 326.87 -21.272 322.152 C -21.072 321.404 -20.872 320.656 -20.667 319.886 C -15.924 303.717 -3.229 291.506 10.748 282.91 C 27.574 273.77 49.17 272.399 67.454 277.447 C 73.21 279.17 78.545 281.398 83.798 284.292 C 88.267 286.705 91.498 287.884 96.728 287.152 C 98.907 283.884 99.45 282.943 98.728 279.152 C 87.711 267.217 67.185 262.538 51.501 261.738 C 49.369 261.659 47.236 261.589 45.103 261.527 C 44.003 261.488 42.904 261.449 41.771 261.41 C 39.09 261.316 36.409 261.231 33.728 261.152 C 34.191 255.165 35.414 250.922 38.353 245.714 C 38.888 244.74 38.888 244.74 39.434 243.746 C 42.397 238.474 45.807 233.757 49.728 229.152 C 50.47 228.162 51.213 227.172 51.978 226.152 C 70.872 204.027 101.998 194.246 130.165 194.589 Z" fill="#436CD2" style="stroke-width: 1;" transform="matrix(1, 0, 0, 1, 5.684341886080802e-14, 0)"/>
  <path d="M 197.728 516.152 C 197.798 535.719 197.851 555.286 197.883 574.853 C 197.899 583.938 197.92 593.024 197.954 602.109 C 197.984 610.029 198.004 617.949 198.01 625.869 C 198.014 630.062 198.023 634.254 198.045 638.447 C 198.066 642.396 198.072 646.344 198.067 650.293 C 198.068 651.74 198.074 653.187 198.086 654.634 C 198.204 670.219 198.204 670.219 192.353 676.839 C 175.151 691.993 152.6 694.351 130.471 693.016 C 96.49 690.504 61.508 677.653 38.384 651.64 C 28.951 640.538 19.003 625.296 19.728 610.152 C 20.709 610.138 21.69 610.123 22.701 610.109 C 31.774 609.834 39.176 608.376 47.619 605.015 C 50.728 604.152 50.728 604.152 52.822 604.796 C 53.451 605.244 54.08 605.691 54.728 606.152 C 55.558 606.675 56.388 607.198 57.244 607.738 C 58.146 608.328 59.048 608.918 59.978 609.527 C 78.008 621.016 97.917 625.118 118.915 620.527 C 131.679 617.503 142.473 612.436 152.728 604.152 C 153.396 603.636 154.063 603.12 154.751 602.589 C 166.189 593.399 176.015 576.773 177.728 562.152 C 178.416 550.473 178.102 538.766 176.728 527.152 C 177.681 526.693 178.633 526.234 179.615 525.761 C 180.882 525.142 182.149 524.522 183.415 523.902 C 184.041 523.601 184.667 523.301 185.312 522.992 C 189.169 521.093 193.745 516.152 197.728 516.152 Z" fill="#4065CB" style="stroke-width: 1;" transform="matrix(1, 0, 0, 1, 5.684341886080802e-14, 0)"/>
  <g transform="matrix(5.992523193359375, 0, 0, 5.945877380952381, -56.957420349121094, 27.418133)" fill="#ED1C24" style="">
    <rect x="106.835" y="28" width="18" height="84" rx="3"/>
    <rect x="128.835" y="60" width="18" height="18" rx="3"/>
    <rect x="146.835" y="42" width="18" height="18" rx="3"/>
    <rect x="164.835" y="28" width="18" height="18" rx="3"/>
    <rect x="146.835" y="78" width="18" height="18" rx="3"/>
    <rect x="164.835" y="94" width="18" height="18" rx="3"/>
  </g>

</svg>